 <svg transform="scale(0.5)"  width="100px" height="6cm">
                <g>
                    <g>
                        <path fill="#3A0E61" d="M59.012,94.787c1.009-0.123,2.26-0.228,2.985-0.228c1.162,0,2.005,0.15,2.746,0.62
                        c0.89,0.557,1.19,1.538,1.19,2.323c0,2.368-2.02,3.091-3.166,3.091c-0.257,0-0.424-0.016-0.588-0.061l-0.152-0.361
                        c1.825-0.137,2.64-1.146,2.64-2.594c0-1.978-1.479-2.566-3.438-2.475v4.104c0,3.621,0.09,4.328,0.09,4.584l1.645,0.469
                        l-0.151,0.347c-0.754,0-1.478-0.016-2.202-0.016c-0.575,0-1.132,0.016-1.707,0.016l0.091-0.333l1.056-0.467
                        c0.062-0.317,0.062-0.965,0.062-4.54V95.39l-1.223-0.272L59.012,94.787z"/>
                        <path fill="#3A0E61" d="M74.788,94.86c0.708-0.151,2.277-0.301,3.363-0.301c2.386,0,3.621,0.847,3.621,2.551
                        c0,1.643-1.267,2.322-2.398,2.699v0.03c0.333,0.528,1.492,2.126,2.384,3.29c0.814,1.054,1.071,1.341,1.281,1.597l-0.091,0.106
                        c-0.979-0.091-1.643-0.513-2.246-1.206c-0.664-0.726-1.78-2.172-2.761-3.683l0.045-0.105c1.433-0.392,2.565-1.009,2.565-2.548
                        c0-1.933-1.661-2.219-3.471-2.172v4.661c0,2.068-0.015,3.243,0.03,4.012l1.51,0.469l-0.123,0.347
                        c-0.708,0-1.37-0.016-2.064-0.016c-0.619,0-1.239,0.016-1.842,0.016l0.123-0.347l1.131-0.454
                        c0.028-0.587,0.105-2.038,0.105-4.014V95.39l-1.282-0.167L74.788,94.86z"/>
                        <path fill="#3A0E61" d="M91.531,94.649c0.558,0.014,1.117,0.014,1.674,0.014c0.604,0,1.192,0,1.794-0.014
                        l-0.105,0.347l-1.114,0.409v4.012c0,2.504,0.045,4.149,0.073,4.418l1.405,0.424l-0.091,0.347c-0.512,0-1.147-0.016-1.93-0.016
                        c-0.74,0-1.465,0.016-1.993,0.016l0.089-0.347l1.223-0.424c0.06-0.27,0.091-1.915,0.091-4.418V95.39l-1.223-0.422
                        L91.531,94.649z"/>
                        <path fill="#3A0E61" d="M108.592,104.606c-0.574,0-1.1-0.016-1.75-0.016c-0.513,0-1.193,0.016-1.705,0.016
                        l0.092-0.333l1.25-0.511c0.045-0.693,0.196-3.185,0.273-7.649c-0.589-0.906-0.652-0.816-1.662-1.117l0.138-0.347l1.853-0.075
                        c0.046,0.107,0.273,0.497,0.559,0.845c2.024,2.564,4.345,5.236,6.382,7.543h0.045c0-0.709-0.091-6.473-0.091-7.467
                        l-1.191-0.512l0.15-0.333c0.543,0.014,0.965,0.032,1.419,0.032c0.571,0,1.279-0.018,1.867-0.032l-0.105,0.393l-1.31,0.452
                        c-0.016,0.679-0.137,5.007-0.167,7.798c0,0.483-0.03,1.193-0.062,1.554l-0.151,0.062c-1.327-0.936-3.965-4.253-7.118-8.146
                        h-0.032c0,2.624,0.032,6.306,0.105,6.982l1.313,0.528L108.592,104.606z"/>
                        <path fill="#3A0E61" d="M128.654,94.378c0.934,0,1.824,0.226,2.385,0.589
                        c0.329-0.226,0.737-0.376,1.069-0.455l0.106,0.062c-0.075,0.648-0.438,2.067-0.604,2.339l-0.242,0.151
                        c-0.119-0.21-0.392-1.086-0.465-1.583c-0.361-0.242-1.238-0.498-2.038-0.498c-2.881,0-4.615,1.944-4.615,4.645
                        c0,2.656,1.839,4.586,4.827,4.586c0.557,0,0.845-0.061,1.087-0.15c0.572-0.589,1.313-1.373,1.628-1.615h0.378
                        c-0.091,0.422-0.786,1.811-0.966,1.946c-0.589,0.257-1.812,0.481-2.625,0.481c-2.806,0-5.642-1.552-5.642-5.174
                        c0-3.543,3.091-5.324,5.687-5.324H128.654z"/>
                        <path fill="#3A0E61" d="M141.083,94.634c0.588,0,1.176,0.016,1.766,0.016h3.724
                        c0.15-0.045,0.921-0.164,1.177-0.164l0.032,0.043c-0.032,0.409-0.288,1.66-0.379,2.129l-0.256,0.151
                        c-0.136-0.378-0.452-1.298-0.557-1.629l-3.168,0.119v3.817c1.431,0,2.911-0.075,3.831-0.181l0.045,0.119
                        c-0.061,0.137-0.725,0.846-0.89,0.846c-0.255,0-2.609-0.151-2.986-0.151c0,1.011,0,2.896,0.061,4.164l3.332,0.119
                        c0.274-0.361,0.906-1.341,1.209-1.72l0.301-0.043c-0.062,0.541-0.347,1.84-0.516,2.366c-0.995-0.044-1.869-0.044-2.743-0.044
                        h-2.309c-0.664,0-1.374,0.016-1.976,0.016l0.121-0.347l1.298-0.408c0.045-0.181,0.089-1.9,0.089-4.434v-4.06l-1.312-0.39
                        L141.083,94.634z"/>
                    </g>

                    <!-- XML -->

                    <g>
                        <path fill="#3A0E61" d="M157.365,101.063l-1.525,1.727l1.16,1.828h-0.552l-0.922-1.465l-1.277,1.465h-0.641
                        l1.657-1.878l-1.053-1.676h0.536l0.84,1.312l1.155-1.312H157.365z"/>
                        <path fill="#3A0E61" d="M161.051,101.063v3.554h-0.472l-0.003-2.708l-1.437,2.708l-0.627-2.719l-0.874,2.719
                        h-0.468l1.17-3.554h0.409l0.554,2.408l1.279-2.408H161.051z"/>
                        <path fill="#3A0E61" d="M162.563,101.063l-0.463,3.155h1.465l-0.059,0.399h-1.91l0.5-3.554H162.563z"/>
                    </g>

                    <path  fill="#3A0E61" d="M69.914,153.16l2.702-6.207l-29.422-8.37c0-4.586-1.622-17.274-1.622-82.062V0
                    L21.598,0v57.602c0,63.978,0,75.583-1.077,81.25l-18.899,8.371L0,153.16c10.262,0,20.247-0.267,30.506-0.267
                    C43.462,152.893,56.419,153.16,69.914,153.16z"/>
                    <path  fill="#3A0E61" d="M55.881,73.8l2.697,6.475c2.972,0.808,5.941,1.082,10.529,1.083
                    c15.192,0,38.946-7.117,50.269-28.001V0.303c-0.059-0.104-0.118-0.201-0.173-0.302H95.018
                    c5.154,6.724,8.102,15.659,8.102,27.367C103.12,53.28,88.544,71.367,55.881,73.8z"/>
                </g>
                 <text transform="translate(120 121.2764)">
                    <tspan x="0" y="0" fill="#757575" font-family="Arial" font-size="11">This PDF document was created using Prince.</tspan>
                    <tspan x="0" y="20" fill="#757575" font-family="Arial" font-size="11">Prince. Prince is a powerful formatter that </tspan>
                    <tspan x="0" y="40" fill="#757575" font-family="Arial" font-size="11">converts XML into PDF documents. Prince can read many XML </tspan>
                    <tspan x="0" y="60" fill="#757575" font-family="Arial" font-size="11">formats, including XHTML and SVG. Prince formats documents </tspan>
                    <tspan x="0" y="80" fill="#757575" font-family="Arial" font-size="11">according to style sheets written in CSS. Prince has been used to </tspan>
                    <tspan x="0" y="100" fill="#757575" font-family="Arial" font-size="11">publish books, brochures, posters, letters and academic papers.</tspan>
                    <tspan x="0" y="120" fill="#757575" font-family="Arial" font-size="11">Prince
                    is also suitable for generating reports, invoices and other</tspan>
                    <tspan x="0" y="140" fill="#757575" font-family="Arial" font-size="11">dynamic documents on demand.</tspan>
                    <tspan x="0" y="170" fill="#757575" font-family="Arial" font-size="11">The DACCO team would like to thank Prince for the kind donation of a</tspan>
                    <tspan x="0" y="190" fill="#757575" font-family="Arial" font-size="11">license to use their extremely powerful software which made this PDF possible.</tspan>
                 </text>

            </svg>